<?xml version="1.0" standalone="no"?>
<!DOCTYPE svg PUBLIC "-//W3C//DTD SVG 20010904//EN"
 "http://www.w3.org/TR/2001/REC-SVG-20010904/DTD/svg10.dtd">
<svg version="1.0" xmlns="http://www.w3.org/2000/svg"
 width="176.000000pt" height="176.000000pt" viewBox="0 0 176.000000 176.000000"
 preserveAspectRatio="xMidYMid meet">

<g transform="translate(0.000000,176.000000) scale(0.100000,-0.100000)"
fill="#000000" stroke="none">
<path d="M756 1739 c-214 -29 -432 -159 -568 -338 -202 -267 -229 -650 -66
-941 116 -208 313 -359 547 -422 101 -27 305 -29 404 -5 320 79 563 316 648
632 18 64 22 108 22 215 0 107 -4 151 -22 215 -101 374 -417 630 -798 649 -54
3 -129 0 -167 -5z m136 -438 c22 -25 28 -41 28 -77 0 -45 -3 -50 -87 -135
l-87 -89 285 0 c324 0 338 -3 373 -74 17 -36 18 -43 5 -79 -8 -22 -27 -50 -42
-61 -27 -20 -42 -21 -324 -24 l-296 -3 87 -88 c83 -85 86 -90 86 -134 0 -79
-68 -132 -146 -113 -28 8 -345 312 -395 380 -39 52 -39 100 0 152 34 46 347
356 376 373 11 6 40 10 65 7 34 -3 51 -11 72 -35z"/>
</g>
</svg>
